<svg width="23" height="23" viewBox="0 0 23 23" fill="none" xmlns="http://www.w3.org/2000/svg">
<path d="M11.4 11.4C10.355 11.4 9.46047 11.0279 8.7163 10.2837C7.97213 9.53958 7.60005 8.645 7.60005 7.6C7.60005 6.555 7.97213 5.66042 8.7163 4.91625C9.46047 4.17208 10.355 3.8 11.4 3.8C12.445 3.8 13.3396 4.17208 14.0838 4.91625C14.828 5.66042 15.2 6.555 15.2 7.6C15.2 8.645 14.828 9.53958 14.0838 10.2837C13.3396 11.0279 12.445 11.4 11.4 11.4V11.4M3.80005 19V16.34C3.80005 15.8017 3.93859 15.3069 4.21567 14.8556C4.49276 14.4044 4.86088 14.06 5.32005 13.8225C6.30172 13.3317 7.29922 12.9635 8.31255 12.7181C9.32588 12.4727 10.355 12.35 11.4 12.35C12.445 12.35 13.4742 12.4727 14.4875 12.7181C15.5009 12.9635 16.4984 13.3317 17.48 13.8225C17.9392 14.06 18.3073 14.4044 18.5844 14.8556C18.8615 15.3069 19 15.8017 19 16.34V19H3.80005V19M5.70005 17.1H17.1V16.34C17.1 16.1658 17.0565 16.0075 16.9694 15.865C16.8823 15.7225 16.7675 15.6117 16.625 15.5325C15.77 15.105 14.9071 14.7844 14.0363 14.5706C13.1655 14.3569 12.2867 14.25 11.4 14.25C10.5134 14.25 9.63463 14.3569 8.7638 14.5706C7.89297 14.7844 7.03005 15.105 6.17505 15.5325C6.03255 15.6117 5.91776 15.7225 5.83067 15.865C5.74359 16.0075 5.70005 16.1658 5.70005 16.34V17.1V17.1M11.4 9.5C11.9225 9.5 12.3698 9.31396 12.7419 8.94187C13.114 8.56979 13.3 8.1225 13.3 7.6C13.3 7.0775 13.114 6.63021 12.7419 6.25812C12.3698 5.88604 11.9225 5.7 11.4 5.7C10.8775 5.7 10.4303 5.88604 10.0582 6.25812C9.68609 6.63021 9.50005 7.0775 9.50005 7.6C9.50005 8.1225 9.68609 8.56979 10.0582 8.94187C10.4303 9.31396 10.8775 9.5 11.4 9.5V9.5M11.4 7.6V7.6V7.6V7.6V7.6V7.6V7.6V7.6V7.6V7.6M11.4 17.1V17.1V17.1V17.1V17.1V17.1V17.1V17.1V17.1V17.1V17.1V17.1V17.1" fill="#50614B"/>
</svg>
